<?xml version="1.0" encoding="UTF-8"?>
<svg xmlns="http://www.w3.org/2000/svg" xmlns:xlink="http://www.w3.org/1999/xlink" width="20px" height="20px" viewBox="0 0 20 20" version="1.1">
<g id="surface1">
<path style=" stroke:none;fill-rule:nonzero;fill:rgb(0%,0%,0%);fill-opacity:1;" d="M 20 1.332031 L 10.332031 1.332031 L 10.332031 0.332031 C 10.332031 0.148438 10.183594 0 10 0 C 9.816406 0 9.667969 0.148438 9.667969 0.332031 L 9.667969 1.332031 L 0 1.332031 L 0 15.332031 L 9.195312 15.332031 L 5.097656 19.429688 C 4.96875 19.5625 4.96875 19.773438 5.097656 19.902344 C 5.164062 19.96875 5.246094 20 5.332031 20 C 5.417969 20 5.503906 19.96875 5.570312 19.902344 L 9.667969 15.804688 L 9.667969 19 C 9.667969 19.183594 9.816406 19.332031 10 19.332031 C 10.183594 19.332031 10.332031 19.183594 10.332031 19 L 10.332031 15.804688 L 14.429688 19.902344 C 14.496094 19.96875 14.582031 20 14.667969 20 C 14.753906 20 14.835938 19.96875 14.902344 19.902344 C 15.03125 19.773438 15.03125 19.5625 14.902344 19.429688 L 10.804688 15.332031 L 20 15.332031 Z M 19.332031 14.667969 L 0.667969 14.667969 L 0.667969 2 L 19.332031 2 Z M 19.332031 14.667969 "/>
<path style=" stroke:none;fill-rule:nonzero;fill:rgb(0%,0%,0%);fill-opacity:1;" d="M 11.332031 6.332031 L 11.332031 3.667969 L 8.667969 3.667969 L 8.667969 6.332031 L 9.667969 6.332031 L 9.667969 8 L 4.667969 8 L 4.667969 9.367188 C 3.90625 9.523438 3.332031 10.195312 3.332031 11 C 3.332031 11.917969 4.082031 12.667969 5 12.667969 C 5.917969 12.667969 6.667969 11.917969 6.667969 11 C 6.667969 10.195312 6.09375 9.523438 5.332031 9.367188 L 5.332031 8.667969 L 9.667969 8.667969 L 9.667969 9.367188 C 8.90625 9.523438 8.332031 10.195312 8.332031 11 C 8.332031 11.917969 9.082031 12.667969 10 12.667969 C 10.917969 12.667969 11.667969 11.917969 11.667969 11 C 11.667969 10.195312 11.09375 9.523438 10.332031 9.367188 L 10.332031 8.667969 L 14.667969 8.667969 L 14.667969 9.367188 C 13.90625 9.523438 13.332031 10.195312 13.332031 11 C 13.332031 11.917969 14.082031 12.667969 15 12.667969 C 15.917969 12.667969 16.667969 11.917969 16.667969 11 C 16.667969 10.195312 16.09375 9.523438 15.332031 9.367188 L 15.332031 8 L 10.332031 8 L 10.332031 6.332031 Z M 6 11 C 6 11.550781 5.550781 12 5 12 C 4.449219 12 4 11.550781 4 11 C 4 10.449219 4.449219 10 5 10 C 5.550781 10 6 10.449219 6 11 Z M 11 11 C 11 11.550781 10.550781 12 10 12 C 9.449219 12 9 11.550781 9 11 C 9 10.449219 9.449219 10 10 10 C 10.550781 10 11 10.449219 11 11 Z M 16 11 C 16 11.550781 15.550781 12 15 12 C 14.449219 12 14 11.550781 14 11 C 14 10.449219 14.449219 10 15 10 C 15.550781 10 16 10.449219 16 11 Z M 9.332031 4.332031 L 10.667969 4.332031 L 10.667969 5.667969 L 9.332031 5.667969 Z M 9.332031 4.332031 "/>
</g>
</svg>
